<?xml version="1.0" encoding="utf-8"?>
<!-- Generator: Adobe Illustrator 26.0.1, SVG Export Plug-In . SVG Version: 6.00 Build 0)  -->
<svg version="1.1" id="Calque_1" xmlns="http://www.w3.org/2000/svg" xmlns:xlink="http://www.w3.org/1999/xlink" x="0px" y="0px"
	 viewBox="0 0 500 1500" style="enable-background:new 0 0 500 1500;" xml:space="preserve">
<style type="text/css">
	.st0{fill:#FFFFFF;}
</style>
<g id="Layer_1">
	<circle class="st0" cx="287.3" cy="1140.4" r="41.6"/>
	<circle class="st0" cx="312.9" cy="1091.3" r="41.6"/>
	<rect x="2.3" y="0" class="st0" width="286.3" height="1500"/>
	<circle class="st0" cx="295.8" cy="1044.2" r="41.6"/>
	
		<ellipse transform="matrix(7.088883e-02 -0.9975 0.9975 7.088883e-02 -760.767 1211.9875)" class="st0" cx="270.2" cy="1014.4" rx="41.6" ry="41.6"/>
	<circle class="st0" cx="263.6" cy="292.3" r="70.7"/>
	<circle class="st0" cx="328.2" cy="223.8" r="70.7"/>
	<circle class="st0" cx="321.9" cy="139.2" r="70.7"/>
	<ellipse class="st0" cx="290.8" cy="71.6" rx="70.7" ry="71.6"/>
	<circle class="st0" cx="292.5" cy="505.9" r="102.4"/>
	<circle class="st0" cx="364.5" cy="641.5" r="102.4"/>
	<circle class="st0" cx="293.4" cy="761.2" r="102.4"/>
	<circle class="st0" cx="283.3" cy="1269.4" r="41.2"/>
	<circle class="st0" cx="312.2" cy="1321.5" r="41.2"/>
	<circle class="st0" cx="324.2" cy="1369.5" r="41.2"/>
	<circle class="st0" cx="309.2" cy="1414.5" r="41.2"/>
	<circle class="st0" cx="282.2" cy="1456.5" r="41.2"/>
	<circle class="st0" cx="292.8" cy="1198.4" r="34.8"/>
	<circle class="st0" cx="294.5" cy="908.5" r="70.7"/>
	<circle class="st0" cx="300.2" cy="403.6" r="70.7"/>
</g>
</svg>
