<?xml version="1.0" encoding="utf-8"?>
<!-- Generator: Adobe Illustrator 26.0.1, SVG Export Plug-In . SVG Version: 6.00 Build 0)  -->
<svg version="1.1" id="Calque_1" xmlns="http://www.w3.org/2000/svg" xmlns:xlink="http://www.w3.org/1999/xlink" x="0px" y="0px"
	 viewBox="0 0 500 1500" style="enable-background:new 0 0 500 1500;" xml:space="preserve">
<style type="text/css">
	.st0{fill:#FFFFFF;}
</style>
<g id="Layer_1">
	<circle class="st0" cx="212.8" cy="1140.4" r="41.6"/>
	<circle class="st0" cx="187.2" cy="1091.3" r="41.6"/>
	<rect x="211.5" y="0" class="st0" width="286.3" height="1500"/>
	<circle class="st0" cx="204.3" cy="1044.2" r="41.6"/>
	<circle class="st0" cx="229.9" cy="1014.4" r="41.6"/>
	<circle class="st0" cx="236.5" cy="292.3" r="70.7"/>
	<circle class="st0" cx="171.9" cy="223.8" r="70.7"/>
	<circle class="st0" cx="178.2" cy="139.2" r="70.7"/>
	<ellipse class="st0" cx="209.3" cy="71.6" rx="70.7" ry="71.6"/>
	<circle class="st0" cx="207.6" cy="505.9" r="102.4"/>
	<circle class="st0" cx="135.6" cy="641.5" r="102.4"/>
	
		<ellipse transform="matrix(0.7071 -0.7071 0.7071 0.7071 -477.7223 369.1457)" class="st0" cx="206.7" cy="761.2" rx="102.4" ry="102.4"/>
	<circle class="st0" cx="216.8" cy="1269.4" r="41.2"/>
	<circle class="st0" cx="187.9" cy="1321.5" r="41.2"/>
	<circle class="st0" cx="175.9" cy="1369.5" r="41.2"/>
	<circle class="st0" cx="190.9" cy="1414.5" r="41.2"/>
	<circle class="st0" cx="217.9" cy="1456.5" r="41.2"/>
	<circle class="st0" cx="207.3" cy="1198.4" r="34.8"/>
	<circle class="st0" cx="205.6" cy="908.5" r="70.7"/>
	<circle class="st0" cx="199.9" cy="403.6" r="70.7"/>
</g>
</svg>
